<svg height="46" viewBox="0 0 40 46" width="40" xmlns="http://www.w3.org/2000/svg"><g fill="none" fill-rule="evenodd"><g fill="#ff7533"><path d="m8.57142857 40.25c-1.71428571 0-2.85714286-1.15-2.85714286-2.875s1.42857143-2.875 2.85714286-2.875h28.51160713c-.1723214 1.4590625-.1571428 4.3466406.0473214 5.75z" opacity=".4"/><path d="m8.57142857 34.5h29.28571433c1.1834673 0 2.1428571-.965386 2.1428571-2.15625v-29.46875c0-1.58781866-1.2791864-2.875-2.8571429-2.875h-28.57142853c-4.73386928 0-8.57142857 3.86154403-8.57142857 8.625v28.75c0 4.763456 3.83755929 8.625 8.57142857 8.625h29.28571433c1.1834673 0 2.1428571-.965386 2.1428571-2.15625v-1.4375c0-1.190864-.9593898-2.15625-2.1428571-2.15625h-29.28571433c-1.71428571 0-2.85714286-1.15-2.85714286-2.875s1.42857143-2.875 2.85714286-2.875z"/></g><g fill="#fff" transform="translate(8.571429 7.546875)"><path d="m15.0521952.68789139c.1093725.03168081.2017043.10592506.2565765.20631392s.0677638.21865089.0358238.32863293l-4.8673947 16.88134286c-.0314699.110039-.1051542.2029371-.2047784.2581758-.0996241.0552388-.2169909.0682733-.32617769.0362245l-2.17517272-.6354738c-.10937248-.0316808-.20170423-.105925-.25657646-.2063139-.05487224-.1003888-.06776381-.2186509-.03582381-.3286329l4.86739468-16.88134291c.0314699-.11003896.1051543-.20293703.2047784-.25817581s.2169909-.06827324.3261777-.03622447z" opacity=".598177"/><path d="m22.6870515 8.913148-5.1387564-4.85401438c-.1729452-.16191924-.4430013-.15392208-.6061957.01795124l-1.5511478 1.66731085c-.0791105.08497184-.1206823.19857196-.1152408.31491019s.0574326.22550205.1441243.30261235l3.2295966 2.86501736-3.2303098 2.86142709c-.0874112.0766699-.1399266.1859607-.14538.3025528-.0054534.1165922.0366285.2303683.1164966.3149698l1.5511477 1.6658747c.0774088.084038.1848858.1335563.298652.137599.1137662.0040428.2244431-.0377233.3075437-.1160575l5.1387564-4.85042412c.0873254-.0810451.1370606-.19513049.1371961-.3147076.0001354-.1195771-.0493413-.23377639-.1364829-.31502178zm-15.25473592-3.16659814-1.55114776-1.66587476c-.07789435-.08354279-.18563442-.13240096-.29939394-.13576971-.11375951-.00336876-.22416536.03902947-.30680174.11781848l-5.13875641 4.84683388c-.08676689.08111142-.13606931.19493717-.13606931.31414664s.04930242.23303522.13606931.31414664l5.13875641 4.85042417c.08227695.0795159.1928397.1224061.30683715.1190303.11399744-.0033758.22186542-.0527344.29935853-.1369816l1.55114776-1.6658747c.07911055-.0849719.12068231-.198572.11524081-.3149102s-.05743262-.2255021-.14412425-.3026124l-3.23137954-2.85999099 3.23066637-2.86142711c.08795705-.0766001.14090032-.18614051.14649274-.30309568.00559242-.11695516-.03665447-.23110974-.11689613-.31586296z" fill-rule="nonzero"/></g></g></svg>